{
  "source": "C:\\Users\\Peter\\Desktop\\stuff\\MIUN\\quantitative_research\\video_compression\\videos\\BVI-HD\\PlasmaAveragePan_1920x1080_60fps.mp4",
  "output": "C:\\Users\\Peter\\Desktop\\stuff\\MIUN\\quantitative_research\\video_compression\\compressed_videos\\BVI-HD\\av1\\12\\PlasmaAveragePan_1920x1080_60fps_av1.mkv",
  "codec": "av1",
  "ok": "Input #0, mov,mp4,m4a,3gp,3g2,mj2, from 'C:\\Users\\Peter\\Desktop\\stuff\\MIUN\\quantitative_research\\video_compression\\videos\\BVI-HD\\PlasmaAveragePan_1920x1080_60fps.mp4':\n  Metadata:\n    major_brand     : isom\n    minor_version   : 512\n    compatible_brands: isomiso2avc1mp41\n    encoder         : Lavf54.28.101\n  Duration: 00:00:05.00, start: 0.000000, bitrate: 73730 kb/s\n  Stream #0:0[0x1](und): Video: h264 (High 4:4:4 Predictive) (avc1 / 0x31637661), yuv420p(progressive), 1920x1080, 73727 kb/s, 60 fps, 60 tbr, 60 tbn (default)\n    Metadata:\n      handler_name    : VideoHandler\n      vendor_id       : [0][0][0][0]\n[out#0/matroska @ 000001e0fa7d9540] Codec AVOption b:a (set bitrate (in bits/s)) has not been used for any stream. The most likely reason is either wrong type (e.g. a video option with no video streams) or that it is a private option of some decoder which was not actually used for any stream.\nStream mapping:\n  Stream #0:0 -> #0:0 (h264 (native) -> av1 (libsvtav1))\nPress [q] to stop, [?] for help\nSvt[info]: -------------------------------------------\nSvt[info]: SVT [version]:\tSVT-AV1 Encoder Lib v3.1.0-19-g6ecfe8ec\nSvt[info]: SVT [build]  :\tGCC 15.2.0\t 64 bit\nSvt[info]: LIB Build date: Aug 17 2025 11:37:13\nSvt[info]: -------------------------------------------\nSvt[info]: Level of Parallelism: 5\nSvt[info]: Number of PPCS 93\nSvt[info]: [asm level on system : up to avx2]\nSvt[info]: [asm level selected : up to avx2]\nSvt[info]: -------------------------------------------\nSvt[info]: SVT [config]: main profile\ttier (auto)\tlevel (auto)\nSvt[info]: SVT [config]: width / height / fps numerator / fps denominator \t\t: 1920 / 1080 / 60 / 1\nSvt[info]: SVT [config]: bit-depth / color format \t\t\t\t\t: 8 / YUV420\nSvt[info]: SVT [config]: preset / tune / pred struct \t\t\t\t\t: 4 / PSNR / random access\nSvt[info]: SVT [config]: gop size / mini-gop size / key-frame type \t\t\t: 321 / 16 / key frame\nSvt[info]: SVT [config]: BRC mode / target bitrate (kbps)\t\t\t\t: VBR / 12000 \nSvt[info]: SVT [config]: AQ mode / Variance Boost \t\t\t\t\t: 2 / 0\nSvt[info]: SVT [config]: sharpness / luminance-based QP bias \t\t\t\t: 0 / 0\nSvt[info]: SVT [config]: QP scale compress strength \t\t\t\t\t: 0\nSvt[info]: -------------------------------------------\nOutput #0, matroska, to 'C:\\Users\\Peter\\Desktop\\stuff\\MIUN\\quantitative_research\\video_compression\\compressed_videos\\BVI-HD\\av1\\12\\PlasmaAveragePan_1920x1080_60fps_av1.mkv':\n  Metadata:\n    major_brand     : isom\n    minor_version   : 512\n    compatible_brands: isomiso2avc1mp41\n    encoder         : Lavf62.3.100\n  Stream #0:0(und): Video: av1 (AV01 / 0x31305641), yuv420p(tv, progressive), 1920x1080, q=2-31, 12000 kb/s, 60 fps, 1k tbn (default)\n    Metadata:\n      encoder         : Lavc62.11.100 libsvtav1\n      handler_name    : VideoHandler\n      vendor_id       : [0][0][0][0]\n    Side data:\n      cpb: bitrate max/min/avg: 0/0/12000000 buffer size: 12000000 vbv_delay: N/A\nframe=    0 fps=0.0 q=0.0 size=       0KiB time=N/A bitrate=N/A speed=N/A elapsed=0:00:01.03    \nframe=    0 fps=0.0 q=0.0 size=       0KiB time=N/A bitrate=N/A speed=N/A elapsed=0:00:01.56    \nframe=    0 fps=0.0 q=0.0 size=       0KiB time=N/A bitrate=N/A speed=N/A elapsed=0:00:02.11    \nframe=    0 fps=0.0 q=0.0 size=       0KiB time=N/A bitrate=N/A speed=N/A elapsed=0:00:02.64    \nframe=    1 fps=0.3 q=5.0 size=       1KiB time=00:00:00.00 bitrate=N/A speed=   0x elapsed=0:00:03.15    \nframe=    1 fps=0.3 q=5.0 size=       1KiB time=00:00:00.00 bitrate=N/A speed=   0x elapsed=0:00:03.66    \nframe=    3 fps=0.7 q=10.0 size=       1KiB time=00:00:00.03 bitrate= 170.9kbits/s speed=0.00794x elapsed=0:00:04.19    \nframe=    6 fps=1.3 q=12.0 size=       1KiB time=00:00:00.08 bitrate=  68.4kbits/s speed=0.0177x elapsed=0:00:04.71    \nframe=   10 fps=1.9 q=12.0 size=       1KiB time=00:00:00.15 bitrate=  38.0kbits/s speed=0.0286x elapsed=0:00:05.23    \nframe=   14 fps=2.4 q=10.0 size=       1KiB time=00:00:00.21 bitrate=  26.3kbits/s speed=0.0378x elapsed=0:00:05.73    \nframe=   18 fps=2.9 q=11.0 size=       1KiB time=00:00:00.28 bitrate=  20.1kbits/s speed=0.0452x elapsed=0:00:06.26    \nframe=   21 fps=3.1 q=7.0 size=       1KiB time=00:00:00.33 bitrate=  17.1kbits/s speed=0.049x elapsed=0:00:06.79    \nframe=   23 fps=3.1 q=9.0 size=       1KiB time=00:00:00.36 bitrate=  15.5kbits/s speed=0.0502x elapsed=0:00:07.30    \nframe=   27 fps=3.4 q=9.0 size=       1KiB time=00:00:00.43 bitrate=  13.1kbits/s speed=0.0554x elapsed=0:00:07.82    \nframe=   32 fps=3.8 q=10.0 size=       1KiB time=00:00:00.51 bitrate=  11.0kbits/s speed=0.0618x elapsed=0:00:08.36    \nframe=   35 fps=3.9 q=9.0 size=       1KiB time=00:00:00.56 bitrate=  10.1kbits/s speed=0.0639x elapsed=0:00:08.86    \nframe=   39 fps=4.2 q=9.0 size=       1KiB time=00:00:00.63 bitrate=   9.0kbits/s speed=0.0675x elapsed=0:00:09.38    \nframe=   42 fps=4.2 q=10.0 size=       1KiB time=00:00:00.68 bitrate=   8.3kbits/s speed=0.0688x elapsed=0:00:09.92    \nframe=   47 fps=4.5 q=8.0 size=       1KiB time=00:00:00.76 bitrate=   7.4kbits/s speed=0.0734x elapsed=0:00:10.44    \nframe=   51 fps=4.7 q=8.0 size=       1KiB time=00:00:00.83 bitrate=   6.8kbits/s speed=0.076x elapsed=0:00:10.95    \nframe=   54 fps=4.7 q=10.0 size=       1KiB time=00:00:00.88 bitrate=   6.4kbits/s speed=0.077x elapsed=0:00:11.47    \nframe=   57 fps=4.8 q=7.0 size=       1KiB time=00:00:00.93 bitrate=   6.1kbits/s speed=0.0778x elapsed=0:00:11.99    \nframe=   62 fps=5.0 q=12.0 size=       1KiB time=00:00:01.01 bitrate=   5.6kbits/s speed=0.0813x elapsed=0:00:12.50    \nframe=   66 fps=5.1 q=11.0 size=       1KiB time=00:00:01.08 bitrate=   5.3kbits/s speed=0.0832x elapsed=0:00:13.02    \nframe=   69 fps=5.1 q=8.0 size=       1KiB time=00:00:01.13 bitrate=   5.0kbits/s speed=0.0836x elapsed=0:00:13.54    \nframe=   71 fps=5.1 q=9.0 size=       1KiB time=00:00:01.16 bitrate=   4.9kbits/s speed=0.083x elapsed=0:00:14.05    \nframe=   75 fps=5.1 q=9.0 size=       1KiB time=00:00:01.23 bitrate=   4.6kbits/s speed=0.0846x elapsed=0:00:14.57    \nframe=   79 fps=5.2 q=9.0 size=       1KiB time=00:00:01.30 bitrate=   4.4kbits/s speed=0.0862x elapsed=0:00:15.08    \nframe=   83 fps=5.3 q=11.0 size=       1KiB time=00:00:01.36 bitrate=   4.2kbits/s speed=0.0876x elapsed=0:00:15.60    \nframe=   86 fps=5.3 q=12.0 size=       1KiB time=00:00:01.41 bitrate=   4.0kbits/s speed=0.0879x elapsed=0:00:16.12    \nframe=   90 fps=5.4 q=12.0 size=       1KiB time=00:00:01.46 bitrate=   3.9kbits/s speed=0.0882x elapsed=0:00:16.63    \nframe=   93 fps=5.4 q=9.0 size=       1KiB time=00:00:01.53 bitrate=   3.7kbits/s speed=0.0894x elapsed=0:00:17.15    \nframe=   98 fps=5.5 q=12.0 size=       1KiB time=00:00:01.61 bitrate=   3.5kbits/s speed=0.0915x elapsed=0:00:17.67    \nframe=  101 fps=5.6 q=11.0 size=       1KiB time=00:00:01.66 bitrate=   3.4kbits/s speed=0.0916x elapsed=0:00:18.19    \nframe=  105 fps=5.6 q=9.0 size=       1KiB time=00:00:01.71 bitrate=   3.3kbits/s speed=0.0917x elapsed=0:00:18.71    \nframe=  109 fps=5.7 q=9.0 size=       1KiB time=00:00:01.80 bitrate=   3.2kbits/s speed=0.0935x elapsed=0:00:19.25    \nframe=  114 fps=5.8 q=12.0 size=       1KiB time=00:00:01.88 bitrate=   3.0kbits/s speed=0.0952x elapsed=0:00:19.77    \nframe=  117 fps=5.8 q=9.0 size=       1KiB time=00:00:01.93 bitrate=   2.9kbits/s speed=0.0953x elapsed=0:00:20.29    \nframe=  119 fps=5.7 q=11.0 size=       1KiB time=00:00:01.96 bitrate=   2.9kbits/s speed=0.0945x elapsed=0:00:20.80    \nframe=  124 fps=5.8 q=12.0 size=       1KiB time=00:00:02.05 bitrate=   2.8kbits/s speed=0.0961x elapsed=0:00:21.32    \nframe=  130 fps=6.0 q=12.0 size=       1KiB time=00:00:02.15 bitrate=   2.6kbits/s speed=0.0984x elapsed=0:00:21.84    \nframe=  133 fps=5.9 q=11.0 size=       1KiB time=00:00:02.20 bitrate=   2.6kbits/s speed=0.0983x elapsed=0:00:22.37    \nframe=  135 fps=5.9 q=12.0 size=       1KiB time=00:00:02.23 bitrate=   2.6kbits/s speed=0.0976x elapsed=0:00:22.88    \nframe=  141 fps=6.0 q=9.0 size=       1KiB time=00:00:02.33 bitrate=   2.4kbits/s speed=0.0997x elapsed=0:00:23.40    \nframe=  145 fps=6.1 q=6.0 size=       1KiB time=00:00:02.40 bitrate=   2.4kbits/s speed= 0.1x elapsed=0:00:23.92    \nframe=  148 fps=6.1 q=12.0 size=       1KiB time=00:00:02.45 bitrate=   2.3kbits/s speed= 0.1x elapsed=0:00:24.42    \nframe=  151 fps=6.1 q=11.0 size=       1KiB time=00:00:02.50 bitrate=   2.3kbits/s speed= 0.1x elapsed=0:00:24.95    \nframe=  154 fps=6.0 q=12.0 size=       1KiB time=00:00:02.55 bitrate=   2.2kbits/s speed= 0.1x elapsed=0:00:25.47    \nframe=  159 fps=6.1 q=12.0 size=       1KiB time=00:00:02.63 bitrate=   2.2kbits/s speed=0.101x elapsed=0:00:25.99    \nframe=  163 fps=6.1 q=12.0 size=       1KiB time=00:00:02.70 bitrate=   2.1kbits/s speed=0.102x elapsed=0:00:26.51    \nframe=  166 fps=6.1 q=13.0 size=       1KiB time=00:00:02.75 bitrate=   2.1kbits/s speed=0.102x elapsed=0:00:27.03    \nframe=  170 fps=6.2 q=13.0 size=       1KiB time=00:00:02.81 bitrate=   2.0kbits/s speed=0.102x elapsed=0:00:27.53    \nframe=  175 fps=6.2 q=12.0 size=       1KiB time=00:00:02.90 bitrate=   2.0kbits/s speed=0.103x elapsed=0:00:28.06    \nframe=  179 fps=6.3 q=12.0 size=       1KiB time=00:00:02.96 bitrate=   1.9kbits/s speed=0.104x elapsed=0:00:28.56    \nframe=  182 fps=6.3 q=13.0 size=       1KiB time=00:00:03.01 bitrate=   1.9kbits/s speed=0.104x elapsed=0:00:29.08    \nframe=  186 fps=6.3 q=13.0 size=       1KiB time=00:00:03.08 bitrate=   1.8kbits/s speed=0.104x elapsed=0:00:29.60    \nframe=  191 fps=6.3 q=12.0 size=       1KiB time=00:00:03.16 bitrate=   1.8kbits/s speed=0.105x elapsed=0:00:30.11    \nframe=  195 fps=6.4 q=12.0 size=       1KiB time=00:00:03.23 bitrate=   1.8kbits/s speed=0.105x elapsed=0:00:30.65    \nframe=  198 fps=6.4 q=13.0 size=    5120KiB time=00:00:03.28 bitrate=12774.5kbits/s speed=0.105x elapsed=0:00:31.16    \nframe=  202 fps=6.4 q=13.0 size=    5120KiB time=00:00:03.35 bitrate=12520.3kbits/s speed=0.106x elapsed=0:00:31.68    \nframe=  207 fps=6.4 q=12.0 size=    5120KiB time=00:00:03.43 bitrate=12216.4kbits/s speed=0.107x elapsed=0:00:32.20    \nframe=  213 fps=6.5 q=12.0 size=    5120KiB time=00:00:03.53 bitrate=11870.7kbits/s speed=0.108x elapsed=0:00:32.72    \nframe=  217 fps=6.5 q=10.0 size=    5120KiB time=00:00:03.60 bitrate=11650.8kbits/s speed=0.108x elapsed=0:00:33.24    \nframe=  219 fps=6.5 q=12.0 size=    5120KiB time=00:00:03.63 bitrate=11544.0kbits/s speed=0.108x elapsed=0:00:33.76    \nframe=  223 fps=6.5 q=11.0 size=    5120KiB time=00:00:03.70 bitrate=11336.0kbits/s speed=0.108x elapsed=0:00:34.29    \nframe=  225 fps=6.5 q=7.0 size=    5120KiB time=00:00:03.73 bitrate=11234.7kbits/s speed=0.107x elapsed=0:00:34.86    \nframe=  229 fps=6.5 q=9.0 size=    5120KiB time=00:00:03.80 bitrate=11037.6kbits/s speed=0.107x elapsed=0:00:35.39    \nframe=  231 fps=6.4 q=11.0 size=    5120KiB time=00:00:03.83 bitrate=10941.7kbits/s speed=0.107x elapsed=0:00:35.96    \nframe=  233 fps=6.4 q=10.0 size=    5120KiB time=00:00:03.86 bitrate=10847.3kbits/s speed=0.106x elapsed=0:00:36.50    \nframe=  235 fps=6.3 q=11.0 size=    5120KiB time=00:00:03.90 bitrate=10754.6kbits/s speed=0.105x elapsed=0:00:37.05    \nframe=  237 fps=6.3 q=9.0 size=    5120KiB time=00:00:03.93 bitrate=10663.5kbits/s speed=0.104x elapsed=0:00:37.64    \nframe=  241 fps=6.3 q=7.0 size=    5120KiB time=00:00:04.00 bitrate=10485.8kbits/s speed=0.105x elapsed=0:00:38.17    \nframe=  245 fps=6.3 q=11.0 size=    5120KiB time=00:00:04.06 bitrate=10313.9kbits/s speed=0.105x elapsed=0:00:38.73    \nframe=  249 fps=6.3 q=9.0 size=    5120KiB time=00:00:04.13 bitrate=10147.5kbits/s speed=0.105x elapsed=0:00:39.23    \nframe=  249 fps=6.3 q=9.0 size=    5120KiB time=00:00:04.13 bitrate=10147.5kbits/s speed=0.104x elapsed=0:00:39.77    \nframe=  253 fps=6.3 q=10.0 size=    5120KiB time=00:00:04.20 bitrate=9986.4kbits/s speed=0.104x elapsed=0:00:40.33    \nframe=  255 fps=6.2 q=12.0 size=    5120KiB time=00:00:04.23 bitrate=9907.8kbits/s speed=0.103x elapsed=0:00:40.90    \nframe=  259 fps=6.2 q=13.0 size=    5120KiB time=00:00:04.30 bitrate=9754.2kbits/s speed=0.104x elapsed=0:00:41.44    \nframe=  261 fps=6.2 q=12.0 size=    5120KiB time=00:00:04.33 bitrate=9679.2kbits/s speed=0.103x elapsed=0:00:41.97    \nframe=  265 fps=6.2 q=10.0 size=    5120KiB time=00:00:04.40 bitrate=9532.5kbits/s speed=0.104x elapsed=0:00:42.49    \nframe=  267 fps=6.2 q=12.0 size=    5120KiB time=00:00:04.40 bitrate=9532.5kbits/s speed=0.102x elapsed=0:00:43.03    \nframe=  269 fps=6.2 q=11.0 size=    5120KiB time=00:00:04.46 bitrate=9390.2kbits/s speed=0.102x elapsed=0:00:43.61    \nframe=  273 fps=6.2 q=7.0 size=    5120KiB time=00:00:04.53 bitrate=9252.1kbits/s speed=0.103x elapsed=0:00:44.16    \nframe=  277 fps=6.2 q=12.0 size=    5120KiB time=00:00:04.60 bitrate=9118.1kbits/s speed=0.103x elapsed=0:00:44.69    \nframe=  281 fps=6.2 q=11.0 size=    5120KiB time=00:00:04.66 bitrate=8987.8kbits/s speed=0.103x elapsed=0:00:45.23    \nframe=  281 fps=6.1 q=11.0 size=    5120KiB time=00:00:04.66 bitrate=8987.8kbits/s speed=0.102x elapsed=0:00:45.78    \nframe=  285 fps=6.1 q=12.0 size=    5120KiB time=00:00:04.73 bitrate=8861.2kbits/s speed=0.102x elapsed=0:00:46.34    \nframe=  293 fps=6.2 q=11.0 size=    5120KiB time=00:00:04.86 bitrate=8618.4kbits/s speed=0.104x elapsed=0:00:46.88    \n[out#0/matroska @ 000001e0fa7d9540] video:7549KiB audio:0KiB subtitle:0KiB other streams:0KiB global headers:0KiB muxing overhead: 0.029456%\nframe=  300 fps=6.4 q=12.0 Lsize=    7551KiB time=00:00:04.98 bitrate=12413.4kbits/s speed=0.106x elapsed=0:00:47.13    \n",
  "seconds": 47.750473737716675,
  "probe_out": {}
}